<svg width="200" height="200" viewBox="0 0 200 200" fill="none" xmlns="http://www.w3.org/2000/svg">
<path d="M122.004 0C125.603 1.05271e-07 128.52 2.92624 128.52 6.53595V18.3007C128.52 36.3492 143.108 50.9804 161.102 50.9804H173.484C177.083 50.9804 180 53.9066 180 57.5163V142.484C180 146.093 177.083 149.02 173.484 149.02H161.102C143.108 149.02 128.52 163.651 128.52 181.699V193.464C128.52 197.074 125.603 200 122.004 200H21.3258C21.1459 200 21 199.854 21 199.673V134.967C21 134.787 21.1459 134.641 21.3258 134.641H82.2541C100.249 134.641 114.836 120.009 114.836 101.961V98.0392C114.836 79.9907 100.249 65.3595 82.2541 65.3595H21.3258C21.1459 65.3595 21 65.2132 21 65.0327V0.326797C21 0.146312 21.1459 0 21.3258 0H122.004Z" fill="black"/>
</svg>
